<?xml version="1.0" encoding="UTF-8" standalone="no"?>
<!-- Created with Inkscape (http://www.inkscape.org/) -->

<svg
   xmlns:dc="http://purl.org/dc/elements/1.1/"
   xmlns:cc="http://creativecommons.org/ns#"
   xmlns:rdf="http://www.w3.org/1999/02/22-rdf-syntax-ns#"
   xmlns:svg="http://www.w3.org/2000/svg"
   xmlns="http://www.w3.org/2000/svg"
   xmlns:sodipodi="http://sodipodi.sourceforge.net/DTD/sodipodi-0.dtd"
   xmlns:inkscape="http://www.inkscape.org/namespaces/inkscape"
   width="1010.1133"
   height="707.51575"
   id="svg3355"
   version="1.1"
   inkscape:version="0.48.4 r9939"
   sodipodi:docname="New document 7">
  <defs
     id="defs3357" />
  <sodipodi:namedview
     id="base"
     pagecolor="#ffffff"
     bordercolor="#666666"
     borderopacity="1.0"
     inkscape:pageopacity="0.0"
     inkscape:pageshadow="2"
     inkscape:zoom="0.49497475"
     inkscape:cx="529.49206"
     inkscape:cy="280.83844"
     inkscape:document-units="px"
     inkscape:current-layer="layer1"
     showgrid="false"
     fit-margin-top="0"
     fit-margin-left="0"
     fit-margin-right="0"
     fit-margin-bottom="0"
     inkscape:window-width="1366"
     inkscape:window-height="711"
     inkscape:window-x="0"
     inkscape:window-y="32"
     inkscape:window-maximized="1" />
  <metadata
     id="metadata3360">
    <rdf:RDF>
      <cc:Work
         rdf:about="">
        <dc:format>image/svg+xml</dc:format>
        <dc:type
           rdf:resource="http://purl.org/dc/dcmitype/StillImage" />
        <dc:title></dc:title>
      </cc:Work>
    </rdf:RDF>
  </metadata>
  <g
     inkscape:label="Layer 1"
     inkscape:groupmode="layer"
     id="layer1"
     transform="translate(-228.64032,-410.62455)">
    <g
       transform="matrix(3.0490232,0,0,3.0490232,-510.42524,374.0506)"
       id="g5"
       style="fill:#ffffff">
      <path
         style="fill:#ffffff"
         inkscape:connector-curvature="0"
         d="m 260.504,236.905 c 0,2.007 -0.645,3.668 -1.934,4.984 -1.29,1.316 -2.931,1.974 -4.925,1.974 h -3.809 c -1.98,0 -3.619,-0.658 -4.915,-1.974 -1.296,-1.316 -1.944,-2.978 -1.944,-4.984 0,-1.994 0.641,-3.603 1.924,-4.826 1.283,-1.223 2.927,-1.834 4.935,-1.834 h 3.809 c 2.021,0 3.669,0.611 4.945,1.834 1.276,1.223 1.914,2.832 1.914,4.826 z m -2.353,0.199 c 0,-1.316 -0.422,-2.393 -1.266,-3.23 -0.845,-0.837 -1.924,-1.256 -3.24,-1.256 h -3.809 c -1.303,0 -2.376,0.419 -3.22,1.256 -0.845,0.837 -1.267,1.914 -1.267,3.23 0,1.303 0.422,2.359 1.267,3.17 0.844,0.811 1.917,1.216 3.22,1.216 h 3.809 c 1.316,0 2.396,-0.405 3.24,-1.216 0.844,-0.811 1.266,-1.867 1.266,-3.17 z"
         id="path7" />
      <path
         style="fill:#ffffff"
         inkscape:connector-curvature="0"
         d="m 277.432,235.15 c 0,1.489 -0.545,2.692 -1.635,3.609 -1.01,0.851 -2.28,1.276 -3.808,1.276 h -6.002 v -2.353 h 6.381 c 0.784,0 1.442,-0.232 1.974,-0.698 0.532,-0.466 0.798,-1.083 0.798,-1.854 0,-0.771 -0.266,-1.382 -0.798,-1.834 -0.532,-0.452 -1.19,-0.678 -1.974,-0.678 h -7.776 v 11.246 h -2.373 v -13.618 h 9.771 c 1.528,0 2.798,0.432 3.808,1.296 1.089,0.903 1.634,2.106 1.634,3.608 z"
         id="path9" />
      <path
         style="fill:#ffffff"
         inkscape:connector-curvature="0"
         d="m 291.41,232.618 h -5.364 v 11.246 h -2.353 v -11.246 h -5.384 v -2.373 h 13.1 v 2.373 z"
         id="path11" />
      <path
         style="fill:#ffffff"
         inkscape:connector-curvature="0"
         d="m 295.776,243.863 h -2.373 v -13.618 h 2.373 v 13.618 z"
         id="path13" />
      <path
         style="fill:#ffffff"
         inkscape:connector-curvature="0"
         d="m 319.324,243.883 h -2.672 l -1.974,-9.531 -4.566,8.793 c -0.306,0.598 -0.731,0.897 -1.276,0.897 -0.611,0 -1.077,-0.306 -1.396,-0.917 l -4.566,-8.773 -1.954,9.531 h -2.691 l 3.05,-12.502 c 0.08,-0.359 0.256,-0.671 0.529,-0.937 0.272,-0.266 0.588,-0.399 0.947,-0.399 0.519,0 1.01,0.446 1.476,1.336 l 4.546,8.913 4.566,-8.913 c 0.465,-0.89 0.957,-1.336 1.476,-1.336 0.345,0 0.665,0.14 0.957,0.419 0.252,0.252 0.425,0.558 0.518,0.917 l 3.03,12.502 z"
         id="path15" />
      <path
         style="fill:#ffffff"
         inkscape:connector-curvature="0"
         d="m 324.627,243.863 h -2.373 v -13.618 h 2.373 v 13.618 z"
         id="path17" />
      <path
         style="fill:#ffffff"
         inkscape:connector-curvature="0"
         d="m 341.815,243.863 h -12.721 c -1.024,0 -1.535,-0.326 -1.535,-0.977 0,-0.412 0.246,-0.857 0.738,-1.336 l 8.913,-8.933 h -9.989 v -2.373 h 12.521 c 0.412,0 0.764,0.086 1.057,0.259 0.346,0.2 0.519,0.492 0.519,0.877 0,0.399 -0.199,0.791 -0.598,1.176 l -8.913,8.933 h 10.009 v 2.374 z"
         id="path19" />
      <path
         style="fill:#ffffff"
         inkscape:connector-curvature="0"
         d="m 361.355,243.863 -3.051,-0.02 -2.293,-3.808 h -6.46 l 1.436,-2.353 h 3.609 l -2.373,-3.928 -6.141,10.089 h -3.051 l 7.397,-12.302 c 0.186,-0.319 0.445,-0.611 0.778,-0.877 0.398,-0.306 0.757,-0.458 1.077,-0.458 0.345,0 0.704,0.146 1.077,0.438 0.319,0.253 0.578,0.552 0.777,0.897 l 7.218,12.322 z"
         id="path21" />
      <path
         style="fill:#ffffff"
         inkscape:connector-curvature="0"
         d="m 376.708,243.863 h -7.677 c -1.98,0 -3.619,-0.658 -4.915,-1.974 -1.296,-1.316 -1.944,-2.978 -1.944,-4.984 0,-1.994 0.641,-3.603 1.924,-4.826 1.283,-1.223 2.927,-1.834 4.935,-1.834 h 7.677 v 2.373 h -7.677 c -1.303,0 -2.376,0.419 -3.22,1.256 -0.845,0.837 -1.267,1.914 -1.267,3.23 0,1.303 0.422,2.359 1.267,3.17 0.844,0.811 1.917,1.216 3.22,1.216 h 7.677 v 2.373 z"
         id="path23" />
      <path
         style="fill:#ffffff"
         inkscape:connector-curvature="0"
         d="m 381.733,243.863 h -2.373 v -13.618 h 2.373 v 13.618 z"
         id="path25" />
      <path
         style="fill:#ffffff"
         inkscape:connector-curvature="0"
         d="m 402.149,236.905 c 0,2.007 -0.645,3.668 -1.934,4.984 -1.29,1.316 -2.932,1.974 -4.925,1.974 h -3.809 c -1.98,0 -3.619,-0.658 -4.915,-1.974 -1.296,-1.316 -1.944,-2.978 -1.944,-4.984 0,-1.994 0.641,-3.603 1.924,-4.826 1.283,-1.223 2.927,-1.834 4.935,-1.834 h 3.809 c 2.021,0 3.669,0.611 4.944,1.834 1.278,1.223 1.915,2.832 1.915,4.826 z m -2.352,0.199 c 0,-1.316 -0.422,-2.393 -1.266,-3.23 -0.845,-0.837 -1.924,-1.256 -3.24,-1.256 h -3.809 c -1.303,0 -2.376,0.419 -3.22,1.256 -0.845,0.837 -1.267,1.914 -1.267,3.23 0,1.303 0.422,2.359 1.267,3.17 0.844,0.811 1.917,1.216 3.22,1.216 h 3.809 c 1.316,0 2.396,-0.405 3.24,-1.216 0.844,-0.811 1.266,-1.867 1.266,-3.17 z m -4.346,-9.072 -2.173,1.296 h -1.635 l 1.635,-1.296 h 2.173 z"
         id="path27" />
      <path
         style="fill:#ffffff"
         inkscape:connector-curvature="0"
         d="m 417.702,242.687 c 0,0.877 -0.299,1.316 -0.897,1.316 -0.438,0 -0.93,-0.272 -1.475,-0.817 l -8.733,-8.773 v 9.451 h -2.354 v -12.442 c 0,-0.319 0.087,-0.595 0.26,-0.828 0.173,-0.232 0.419,-0.349 0.737,-0.349 0.438,0 0.891,0.232 1.356,0.698 l 8.733,8.753 v -9.451 h 2.372 v 12.442 z"
         id="path29" />
      <path
         style="fill:#ffffff"
         inkscape:connector-curvature="0"
         d="m 442.286,236.905 c 0,2.007 -0.647,3.668 -1.943,4.984 -1.297,1.316 -2.935,1.974 -4.915,1.974 h -7.677 v -13.618 h 7.677 c 2.007,0 3.651,0.611 4.935,1.834 1.282,1.223 1.923,2.832 1.923,4.826 z m -2.372,0.199 c 0,-1.316 -0.423,-2.393 -1.267,-3.23 -0.845,-0.837 -1.918,-1.256 -3.22,-1.256 h -5.324 v 8.873 h 5.324 c 1.302,0 2.375,-0.405 3.22,-1.216 0.844,-0.812 1.267,-1.868 1.267,-3.171 z"
         id="path31" />
      <path
         style="fill:#ffffff"
         inkscape:connector-curvature="0"
         d="M 455.984,243.863 H 444.22 v -13.618 h 11.765 v 2.373 h -9.392 v 8.873 h 9.392 v 2.372 z m -0.618,-5.722 h -7.776 v -2.373 h 7.776 v 2.373 z"
         id="path33" />
      <path
         style="fill:#ffffff"
         inkscape:connector-curvature="0"
         d="m 479.173,243.863 h -7.696 c -1.98,0 -3.619,-0.658 -4.915,-1.974 -1.296,-1.316 -1.944,-2.978 -1.944,-4.984 0,-1.994 0.642,-3.603 1.925,-4.826 1.282,-1.223 2.927,-1.834 4.935,-1.834 h 7.696 v 2.373 h -7.696 c -1.303,0 -2.376,0.419 -3.22,1.256 -0.845,0.837 -1.267,1.914 -1.267,3.23 0,1.303 0.422,2.359 1.267,3.17 0.844,0.811 1.917,1.216 3.22,1.216 h 7.696 v 2.373 z"
         id="path35" />
      <path
         style="fill:#ffffff"
         inkscape:connector-curvature="0"
         d="m 498.633,236.905 c 0,2.007 -0.645,3.668 -1.934,4.984 -1.29,1.316 -2.932,1.974 -4.925,1.974 h -3.809 c -1.98,0 -3.619,-0.658 -4.915,-1.974 -1.296,-1.316 -1.944,-2.978 -1.944,-4.984 0,-1.994 0.642,-3.603 1.925,-4.826 1.282,-1.223 2.927,-1.834 4.935,-1.834 h 3.809 c 2.021,0 3.669,0.611 4.944,1.834 1.276,1.223 1.914,2.832 1.914,4.826 z m -2.353,0.199 c 0,-1.316 -0.422,-2.393 -1.266,-3.23 -0.845,-0.837 -1.925,-1.256 -3.24,-1.256 h -3.809 c -1.303,0 -2.376,0.419 -3.22,1.256 -0.845,0.837 -1.267,1.914 -1.267,3.23 0,1.303 0.422,2.359 1.267,3.17 0.844,0.811 1.917,1.216 3.22,1.216 h 3.809 c 1.315,0 2.396,-0.405 3.24,-1.216 0.844,-0.811 1.266,-1.867 1.266,-3.17 z m -4.346,-9.072 -2.173,1.296 h -1.636 l 1.636,-1.296 h 2.173 z"
         id="path37" />
      <path
         style="fill:#ffffff"
         inkscape:connector-curvature="0"
         d="m 515.642,236.905 c 0,2.007 -0.648,3.668 -1.944,4.984 -1.296,1.316 -2.935,1.974 -4.915,1.974 h -7.677 v -13.618 h 7.677 c 2.007,0 3.652,0.611 4.935,1.834 1.282,1.223 1.924,2.832 1.924,4.826 z m -2.373,0.199 c 0,-1.316 -0.422,-2.393 -1.266,-3.23 -0.845,-0.837 -1.918,-1.256 -3.221,-1.256 h -5.323 v 8.873 h 5.323 c 1.303,0 2.376,-0.405 3.221,-1.216 0.844,-0.812 1.266,-1.868 1.266,-3.171 z"
         id="path39" />
      <path
         style="fill:#ffffff"
         inkscape:connector-curvature="0"
         d="m 520.327,243.863 h -2.373 v -13.618 h 2.373 v 13.618 z"
         id="path41" />
      <path
         style="fill:#ffffff"
         inkscape:connector-curvature="0"
         d="m 538.73,243.863 h -8.654 c -1.98,0 -3.618,-0.658 -4.914,-1.974 -1.297,-1.316 -1.944,-2.978 -1.944,-4.984 0,-1.994 0.641,-3.603 1.924,-4.826 1.283,-1.223 2.928,-1.834 4.935,-1.834 h 7.677 v 2.373 h -7.677 c -1.303,0 -2.376,0.419 -3.22,1.256 -0.845,0.837 -1.267,1.914 -1.267,3.23 0,1.303 0.422,2.359 1.267,3.17 0.844,0.811 1.917,1.216 3.22,1.216 h 6.281 v -2.971 h -6.46 v -2.173 h 8.833 v 7.517 z"
         id="path43" />
      <path
         style="fill:#ffffff"
         inkscape:connector-curvature="0"
         d="m 558.091,236.905 c 0,2.007 -0.645,3.668 -1.934,4.984 -1.29,1.316 -2.932,1.974 -4.926,1.974 h -3.808 c -1.981,0 -3.619,-0.658 -4.915,-1.974 -1.296,-1.316 -1.944,-2.978 -1.944,-4.984 0,-1.994 0.642,-3.603 1.924,-4.826 1.283,-1.223 2.928,-1.834 4.936,-1.834 h 3.808 c 2.021,0 3.669,0.611 4.945,1.834 1.276,1.223 1.914,2.832 1.914,4.826 z m -2.353,0.199 c 0,-1.316 -0.422,-2.393 -1.267,-3.23 -0.844,-0.837 -1.924,-1.256 -3.24,-1.256 h -3.808 c -1.303,0 -2.377,0.419 -3.221,1.256 -0.844,0.837 -1.266,1.914 -1.266,3.23 0,1.303 0.422,2.359 1.266,3.17 0.844,0.811 1.918,1.216 3.221,1.216 h 3.808 c 1.316,0 2.396,-0.405 3.24,-1.216 0.845,-0.811 1.267,-1.867 1.267,-3.17 z"
         id="path45" />
    </g>
    <g
       transform="matrix(3.0490232,0,0,3.0490232,-510.42524,374.0506)"
       id="g47"
       style="fill:#ffffff">
      <path
         style="fill:#ffffff"
         inkscape:connector-curvature="0"
         d="m 459.499,118.329 13.85,-1.857 c 1.632,-0.219 2.777,-1.719 2.558,-3.35 l -1.857,-13.85 c -0.219,-1.632 -1.719,-2.777 -3.35,-2.558 l -13.85,1.857 c -1.632,0.219 -2.777,1.719 -2.558,3.35 l 1.857,13.85 c 0.218,1.631 1.718,2.777 3.35,2.558 z"
         id="path49" />
      <path
         style="fill:#ffffff"
         inkscape:connector-curvature="0"
         d="m 365.968,164.198 c -0.583,-0.565 -0.998,-1.745 -0.865,-2.536 0.939,-5.572 2.114,-11.104 3.04,-16.677 0.234,-1.41 0.562,-2.23 2.048,-2.654 4.473,-1.275 8.906,-2.695 13.346,-4.083 4.183,-1.308 5.626,-3.978 4.348,-8.169 -2.046,-6.713 -4.147,-13.41 -6.23,-20.112 -1.36,-4.376 -3.887,-5.722 -8.326,-4.38 -4.831,1.46 -9.666,2.911 -14.461,4.484 -1.477,0.484 -2.308,0.179 -3.472,-0.899 -3.918,-3.626 -7.95,-7.149 -12.162,-10.424 -1.505,-1.17 -1.949,-2.072 -1.494,-3.869 1.161,-4.587 2.189,-9.21 3.158,-13.842 0.716,-3.425 -0.914,-5.905 -4.292,-6.71 -3.607,-0.859 -7.229,-1.652 -10.844,-2.474 -3.461,-0.787 -6.922,-1.579 -10.385,-2.359 -4.621,-1.042 -6.986,0.44 -8.076,5.116 -1.146,4.917 -2.287,9.836 -3.339,14.773 -0.289,1.358 -0.989,1.821 -2.277,2.244 -5.295,1.738 -10.553,3.604 -15.755,5.603 -1.295,0.498 -2.079,0.547 -3.107,-0.44 -3.24,-3.114 -6.579,-6.126 -9.877,-9.18 -3.631,-3.362 -6.418,-3.312 -9.745,0.247 -4.684,5.012 -9.352,10.041 -14,15.087 -3.215,3.49 -3.112,6.389 0.308,9.588 3.686,3.448 7.442,6.823 11.049,10.35 0.623,0.609 1.043,1.886 0.899,2.744 -0.933,5.573 -2.154,11.1 -3.033,16.68 -0.246,1.562 -0.654,2.307 -2.207,2.745 -4.401,1.241 -8.755,2.648 -13.114,4.033 -4.138,1.315 -5.517,3.863 -4.262,7.999 2.061,6.791 4.174,13.567 6.299,20.338 1.332,4.245 3.905,5.603 8.163,4.317 4.907,-1.482 9.809,-2.982 14.69,-4.544 1.268,-0.405 2.04,-0.169 3.079,0.77 4.135,3.736 8.371,7.37 12.724,10.85 1.184,0.947 1.579,1.676 1.23,3.109 -1.064,4.368 -2.024,8.762 -3.009,13.149 -1.05,4.673 0.421,7.097 5.01,8.157 6.763,1.563 13.533,3.102 20.308,4.615 4.681,1.045 6.929,-0.403 8.034,-5.153 1.144,-4.917 2.279,-9.837 3.342,-14.772 0.287,-1.333 0.956,-1.849 2.261,-2.279 5.294,-1.744 10.549,-3.618 15.746,-5.633 1.294,-0.502 2.092,-0.566 3.117,0.406 3.548,3.364 7.134,6.689 10.775,9.952 2.781,2.493 5.838,2.376 8.361,-0.309 5.022,-5.344 10.014,-10.718 14.964,-16.129 2.788,-3.047 2.628,-6.044 -0.4,-8.892 -3.848,-3.621 -7.774,-7.16 -11.567,-10.837 z m -5.336,-13.714 c -3.76,24.974 -27.138,42.233 -52.112,38.473 -24.974,-3.76 -42.233,-27.138 -38.472,-52.112 3.76,-24.974 27.138,-42.233 52.112,-38.472 24.974,3.759 42.232,27.136 38.472,52.111 z"
         id="path51" />
      <path
         style="fill:#ffffff"
         inkscape:connector-curvature="0"
         d="m 320.966,106.3 c -20.603,-3.102 -39.888,11.136 -42.99,31.738 -3.102,20.603 11.135,39.888 31.738,42.99 20.603,3.102 39.888,-11.135 42.99,-31.738 3.102,-20.603 -11.135,-39.888 -31.738,-42.99 z m 18.849,42.903 c -2.913,13.29 -16.887,22.054 -30.18,18.928 -13.424,-3.157 -21.748,-16.515 -18.694,-29.999 3.078,-13.59 16.228,-21.925 29.766,-18.868 13.62,3.078 22.087,16.343 19.108,29.939 z"
         id="path53" />
      <path
         style="fill:#ffffff"
         inkscape:connector-curvature="0"
         d="m 573.592,97.557 c -0.676,-4.4 -1.359,-8.799 -2.011,-13.202 -0.361,-2.44 -1.801,-3.981 -3.955,-4.989 -3.03,-1.419 -6.113,-1.083 -9.259,-0.445 -21.875,4.435 -43.757,8.834 -65.637,13.241 -0.584,0.118 -1.176,0.196 -1.851,0.307 -0.215,-1.35 -0.399,-2.506 -0.584,-3.662 -1.04,-6.481 -7.163,-10.546 -13.551,-8.956 -8.04,2.001 -16.078,4.011 -24.102,6.071 -5.68,1.458 -9.165,7.031 -7.819,12.584 0.641,-0.098 1.3,-0.191 1.955,-0.3 7.867,-1.307 15.731,-2.638 23.603,-3.917 4.156,-0.675 6.308,0.935 6.956,5.118 0.624,4.032 1.236,8.065 1.821,12.103 0.506,3.489 -1.263,5.859 -4.794,6.395 -2.628,0.399 -5.268,0.716 -7.901,1.075 -6.053,0.825 -12.106,1.654 -18.144,2.479 0.194,5.894 5.115,10.292 11.218,9.963 8.392,-0.451 16.78,-0.996 25.163,-1.594 6.297,-0.449 10.746,-6.088 9.895,-12.368 -0.171,-1.263 -0.347,-2.526 -0.531,-3.864 0.824,-0.094 1.494,-0.179 2.165,-0.246 22.693,-2.28 45.392,-4.511 68.072,-6.911 2.173,-0.23 4.394,-1.247 6.304,-2.383 2.315,-1.377 3.422,-3.671 2.987,-6.499 z m -10.498,-0.423 c -2.009,3.401 -6.394,4.502 -9.831,2.468 -3.552,-2.102 -4.674,-6.386 -2.602,-9.936 1.981,-3.395 6.444,-4.594 9.826,-2.639 3.595,2.076 4.736,6.502 2.607,10.107 z"
         id="path55" />
      <path
         style="fill:#ffffff"
         inkscape:connector-curvature="0"
         d="m 460.804,75.623 c 5.091,-0.679 10.051,-0.153 14.598,1.35 l 8.092,-10.598 c -3.64,-1.626 -7.555,-2.795 -11.685,-3.417 -24.625,-3.708 -47.676,13.31 -51.383,37.935 -3.708,24.625 13.31,47.676 37.935,51.384 14.619,2.201 28.683,-2.902 38.474,-12.565 l -10.258,-7.832 c -4.709,4.205 -10.66,7.089 -17.312,7.941 -17.733,2.271 -33.928,-10.191 -36.311,-27.943 -2.379,-17.718 10.037,-33.88 27.85,-36.255 z"
         id="path57" />
      <polygon
         style="fill:#ffffff"
         points="496.834,139.713 496.834,139.713 496.863,139.735 "
         id="polygon59" />
      <path
         style="fill:#ffffff"
         inkscape:connector-curvature="0"
         d="m 456.933,161.753 c -29.85,-4.495 -50.478,-32.436 -45.983,-62.286 4.495,-29.85 32.436,-50.478 62.286,-45.984 5.788,0.871 11.226,2.628 16.205,5.105 l 8.5,-11.133 c -6.078,-3.456 -12.595,-5.846 -19.475,-7.082 -2.276,-0.409 -2.935,-1.436 -3.175,-3.537 -0.697,-6.084 -1.518,-12.157 -2.431,-18.213 -0.74,-4.911 -3.869,-7.164 -8.743,-6.52 -4.76,0.629 -9.517,1.274 -14.275,1.913 -5.004,0.672 -10.043,1.164 -14.995,2.113 -1.701,0.326 -3.834,1.434 -4.606,2.829 -1.037,1.875 -1.448,4.421 -1.243,6.596 0.62,6.588 1.592,13.147 2.594,19.691 0.273,1.787 -0.224,2.688 -1.742,3.557 -6.306,3.61 -11.792,8.262 -16.461,13.812 -1.33,1.581 -2.41,1.736 -4.215,0.945 -5.153,-2.258 -10.386,-4.332 -15.593,-6.464 -6.459,-2.644 -9.69,-1.341 -12.335,5.034 -3.425,8.255 -6.815,16.524 -10.2,24.794 -2.046,4.997 -0.461,8.68 4.599,10.777 6.345,2.629 12.715,5.203 19.009,7.948 0.816,0.356 1.75,1.572 1.781,2.421 0.283,7.659 1.388,15.16 3.943,22.397 0.541,1.533 0.247,2.405 -1.005,3.348 -5.023,3.783 -9.993,7.638 -14.965,11.489 -3.901,3.022 -4.473,7.171 -1.475,11.08 5.74,7.486 11.503,14.955 17.301,22.396 3.292,4.225 7.137,4.76 11.4,1.549 5.287,-3.983 10.544,-8.009 15.719,-12.137 1.63,-1.3 2.877,-1.558 4.814,-0.448 6.144,3.521 12.752,5.965 19.74,7.15 2.272,0.385 2.965,1.408 3.203,3.522 0.659,5.839 1.509,11.656 2.303,17.479 0.759,5.568 3.799,7.995 9.395,7.289 9.115,-1.151 18.222,-2.379 27.32,-3.659 5.709,-0.803 8.005,-3.91 7.263,-9.67 -0.846,-6.568 -1.692,-13.137 -2.669,-19.685 -0.269,-1.805 0.123,-2.883 1.756,-3.828 5.7,-3.298 10.698,-7.471 15.087,-12.33 l -11.056,-8.442 c -11.898,12.33 -29.382,18.923 -47.576,16.184 z"
         id="path61" />
      <polygon
         style="fill:#ffffff"
         points="504.49,145.558 504.51,145.573 504.51,145.573 "
         id="polygon63" />
    </g>
  </g>
</svg>
